<svg xmlns="http://www.w3.org/2000/svg" width="390.132" height="509.818" viewBox="0 0 390.132 509.818">
  <g id="Group_1128" data-name="Group 1128" transform="translate(-1239.816 -1248.575)">
    <text id="_10:30" data-name="10:30" transform="translate(1297.472 1263.575)" fill="#262a42" font-size="15" font-family="Montserrat-SemiBold, Montserrat" font-weight="600"><tspan x="-19.147" y="0">10:30</tspan></text>
    <g id="Group_89" data-name="Group 89" transform="translate(1555.62 1253.432)">
      <path id="Path_383" data-name="Path 383" d="M644.175,82.532a1.575,1.575,0,1,1-1.574,1.574A1.573,1.573,0,0,1,644.175,82.532Z" transform="translate(-637.398 -75.53)" fill="#262a42"/>
      <path id="Path_384" data-name="Path 384" d="M649.423,82.3a.511.511,0,0,1-.069-.066l-.075-.066a.321.321,0,0,0-.039-.034,5.143,5.143,0,0,0-7.1.167l-.229.229-.317.315a.989.989,0,0,0,1.4,1.4l.547-.545a3.176,3.176,0,0,1,4.484,0l.392.382a.983.983,0,0,0,1.392-1.387Z" transform="translate(-638.878 -77.521)" fill="#262a42"/>
      <path id="Path_385" data-name="Path 385" d="M653.4,82.1l-.324-.326-.006-.006-.257-.259a.893.893,0,0,0-.148-.118,8.58,8.58,0,0,0-11.59.268.457.457,0,0,1-.047.039l-.592.592a.9.9,0,0,0,1.276,1.276l.592-.59.011-.015a6.774,6.774,0,0,1,9.347-.049l.468.465A.9.9,0,0,0,653.4,82.1Z" transform="translate(-640.174 -79.266)" fill="#262a42"/>
    </g>
    <path id="Path_386" data-name="Path 386" d="M651.481,89.988a1.188,1.188,0,0,1-1.239-1.136l-.015-8.91a1.2,1.2,0,0,1,1.231-1.136l20.686-.036a1.208,1.208,0,0,1,1.241,1.136l0,1.842,1.593-.009.013,5.251-1.6.009.006,1.821a1.192,1.192,0,0,1-1.237,1.134Zm21.042-10.413-21.434.034.009,9.579,21.438-.034Zm-20.6.926,15.591-.028.013,7.8-15.593.015Z" transform="translate(926.948 1173.596)" fill="#262a42"/>
    <path id="Path_387" data-name="Path 387" d="M635.921,90.082h0a1.176,1.176,0,0,1-1.177-1.175V79.862a1.176,1.176,0,0,1,1.177-1.175h0a1.176,1.176,0,0,1,1.175,1.175v9.045A1.176,1.176,0,0,1,635.921,90.082Z" transform="translate(909.231 1173.502)" fill="#262a42"/>
    <path id="Path_388" data-name="Path 388" d="M633.783,87.888h0a1.176,1.176,0,0,1-1.175-1.175V81.779a1.176,1.176,0,0,1,1.175-1.175h0a1.176,1.176,0,0,1,1.177,1.175v4.934A1.176,1.176,0,0,1,633.783,87.888Z" transform="translate(906.787 1175.696)" fill="#262a42"/>
    <path id="Path_389" data-name="Path 389" d="M631.647,86.882h0a1.174,1.174,0,0,1-1.175-1.175V82.66a1.176,1.176,0,0,1,1.175-1.177h0a1.176,1.176,0,0,1,1.175,1.177v3.047A1.174,1.174,0,0,1,631.647,86.882Z" transform="translate(904.343 1176.702)" fill="#262a42"/>
    <path id="Path_390" data-name="Path 390" d="M629.533,85.945h0a1.176,1.176,0,0,1-1.177-1.175V83.479a1.178,1.178,0,0,1,1.177-1.177h0a1.176,1.176,0,0,1,1.175,1.177V84.77A1.174,1.174,0,0,1,629.533,85.945Z" transform="translate(901.921 1177.639)" fill="#262a42"/>
    <circle id="Ellipse_16" data-name="Ellipse 16" cx="137.933" cy="137.933" r="137.933" transform="translate(1239.816 1563.326) rotate(-45)" fill="#eee"/>
    <path id="Path_391" data-name="Path 391" d="M671.049,248.5l-17.634.056a3.08,3.08,0,0,1-3.084-3.077h0a3.078,3.078,0,0,1,3.077-3.082l17.632-.056a3.08,3.08,0,0,1,3.084,3.075h0A3.08,3.08,0,0,1,671.049,248.5Z" transform="translate(907.806 1303.043)" fill="#ec41ff"/>
    <path id="Path_392" data-name="Path 392" d="M535.273,272.844l-30.614.056a3.079,3.079,0,0,1-3.084-3.075h0a3.079,3.079,0,0,1,3.075-3.084l30.616-.056a3.08,3.08,0,0,1,3.084,3.075h0A3.079,3.079,0,0,1,535.273,272.844Z" transform="translate(780.696 1323.844)" fill="#0984e3"/>
    <rect id="Rectangle_48" data-name="Rectangle 48" width="8.617" height="8.345" rx="1.133" transform="translate(1536.527 1410.291) rotate(-0.079)" fill="#0984e3"/>
    <rect id="Rectangle_49" data-name="Rectangle 49" width="8.617" height="8.345" rx="1.133" transform="translate(1339.215 1379.593) rotate(-0.077)" fill="#0984e3"/>
    <ellipse id="Ellipse_17" data-name="Ellipse 17" cx="28.263" cy="28.263" rx="28.263" ry="28.263" transform="translate(1519.588 1454.93)" fill="#0984e3"/>
    <path id="Path_393" data-name="Path 393" d="M638,213.374l10.58,7.73,12.588-15.988" transform="translate(897.272 1271.235)" fill="none" stroke="#fff" stroke-linecap="round" stroke-linejoin="round" stroke-width="2.629"/>
    <rect id="Rectangle_50" data-name="Rectangle 50" width="84.174" height="57.402" rx="2.425" transform="translate(1415.68 1345.543)" fill="#41acff"/>
    <path id="Path_394" data-name="Path 394" d="M588.357,162.513l11.222,16.058a2.917,2.917,0,0,0,4.8-.02l11.018-16.038Z" transform="translate(854.85 1234.831)" fill="#41acff"/>
    <path id="Path_395" data-name="Path 395" d="M602.253,143.417l-2.031,5.652h-2.685l-2.7-7.984a2.058,2.058,0,0,0-1.949-1.4h-6.917a1.2,1.2,0,0,0-1.2,1.2h0a1.2,1.2,0,0,0,1.2,1.2h6.669L595,149.07h-2.867a1.68,1.68,0,0,0-1.6,2.179l4.512,14.493a1.682,1.682,0,0,0,1.6,1.179h19.038a1.682,1.682,0,0,0,1.584-1.116l5.165-14.493a1.679,1.679,0,0,0-1.582-2.242h-2.088l-14.22-6.607A1.68,1.68,0,0,0,602.253,143.417Zm2.09,1.782,8.327,3.868H602.95Zm10.717,19.155H597.3l-3.961-12.718h26.254Z" transform="translate(851.785 1215.328)" fill="#fff"/>
    <path id="Path_396" data-name="Path 396" d="M602.194,155.49a4.629,4.629,0,1,0,4.629,4.629A4.629,4.629,0,0,0,602.194,155.49Zm0,6.689a2.061,2.061,0,1,1,2.06-2.06A2.062,2.062,0,0,1,602.194,162.179Z" transform="translate(862.717 1228.83)" fill="#fff"/>
    <path id="Path_397" data-name="Path 397" d="M594.666,155.49a4.629,4.629,0,1,0,4.629,4.629A4.63,4.63,0,0,0,594.666,155.49Zm0,6.689a2.061,2.061,0,1,1,2.06-2.06A2.062,2.062,0,0,1,594.666,162.179Z" transform="translate(856.283 1228.83)" fill="#fff"/>
    <ellipse id="Ellipse_18" data-name="Ellipse 18" cx="33.017" cy="33.017" rx="33.017" ry="33.017" transform="matrix(0.953, -0.304, 0.304, 0.953, 1292.178, 1432.582)" fill="#41acff"/>
    <path id="Path_398" data-name="Path 398" d="M532.836,191.8a3.581,3.581,0,0,1,3.575,3.577h4.11a7.674,7.674,0,0,0-5.63-7.372v-2.233a2.055,2.055,0,0,0-2.055-2.055h0a2.055,2.055,0,0,0-2.055,2.055V188c-4.633,1.294-7.54,6.765-4.173,12.128a6.888,6.888,0,0,0,6.157,2.93,3.577,3.577,0,1,1-3.507,3.575h-4.11a7.673,7.673,0,0,0,5.632,7.372v2.3a2.055,2.055,0,0,0,2.055,2.055h0a2.055,2.055,0,0,0,2.055-2.055v-2.3c4.631-1.3,7.538-6.767,4.173-12.128a6.889,6.889,0,0,0-6.159-2.93,3.577,3.577,0,1,1-.068-7.153Z" transform="translate(800.839 1252.949)" fill="#fff"/>
    <path id="Path_399" data-name="Path 399" d="M579.259,202.426s-25.994,20.77-26.515,96.741H664.081s-.376-67.878-23.274-94.393Z" transform="translate(824.419 1268.936)" fill="#e4a223"/>
    <path id="Path_400" data-name="Path 400" d="M577.611,244.749,574.524,285.9h31.707l-4.47-41.611Z" transform="translate(843.03 1304.708)" fill="#e9c6b9"/>
    <path id="Path_401" data-name="Path 401" d="M575.973,250.085l27.155,18.442-2.6-24.236Z" transform="translate(844.268 1304.708)" fill="#d8a79b"/>
    <ellipse id="Ellipse_19" data-name="Ellipse 19" cx="10.896" cy="10.896" rx="10.896" ry="10.896" transform="translate(1387.941 1513.325)" fill="#e9c6b9"/>
    <path id="Path_402" data-name="Path 402" d="M561.121,230.117s4.39-1.986,8.3,5.654" transform="translate(831.577 1292.399)" fill="none" stroke="#1e0a05" stroke-linecap="round" stroke-linejoin="round" stroke-width="0.666"/>
    <ellipse id="Ellipse_20" data-name="Ellipse 20" cx="10.896" cy="10.896" rx="10.896" ry="10.896" transform="translate(1457.332 1513.325)" fill="#e9c6b9"/>
    <path id="Path_403" data-name="Path 403" d="M608.986,230.117s-4.389-1.986-8.3,5.654" transform="translate(865.381 1292.399)" fill="none" stroke="#1e0a05" stroke-linecap="round" stroke-linejoin="round" stroke-width="0.666"/>
    <ellipse id="Ellipse_21" data-name="Ellipse 21" cx="40.729" cy="39.717" rx="40.729" ry="39.717" transform="translate(1392.679 1458.779)" fill="#e4a223"/>
    <path id="Path_404" data-name="Path 404" d="M564.581,227.386s-4.295,63.284,33.013,63.284c40.35,0,36.12-63.284,36.12-63.284s-.228-27.613-34.877-27.613C567.074,199.773,564.581,227.386,564.581,227.386Z" transform="translate(834.405 1266.669)" fill="#e9c6b9"/>
    <path id="Path_405" data-name="Path 405" d="M578.76,238.929s6,3.351,12,0" transform="translate(846.649 1300.127)" fill="none" stroke="#1e0a05" stroke-linecap="round" stroke-linejoin="round" stroke-width="0.666"/>
    <path id="Path_406" data-name="Path 406" d="M594.247,220.586s-7.416-1.443-7.759,2.55c0,0-.176,2.708,6.307,3.8s9.065.866,9.831-1.626S597.75,220.909,594.247,220.586Z" transform="translate(853.252 1284.236)" fill="#1e0a05"/>
    <path id="Path_407" data-name="Path 407" d="M576.655,220.641s-7.55.336-6.947,4.3c0,0,.464,2.674,7.021,2.216s9.016-1.281,9.178-3.883S580.135,220.135,576.655,220.641Z" transform="translate(838.885 1284.354)" fill="#1e0a05"/>
    <path id="Path_408" data-name="Path 408" d="M579.16,230.383a2.915,2.915,0,1,1-2.915-2.913A2.916,2.916,0,0,1,579.16,230.383Z" transform="translate(842.01 1290.335)" fill="#1e0a05"/>
    <path id="Path_409" data-name="Path 409" d="M594.581,230.383a2.914,2.914,0,1,1-2.913-2.913A2.914,2.914,0,0,1,594.581,230.383Z" transform="translate(855.187 1290.335)" fill="#1e0a05"/>
    <path id="Path_410" data-name="Path 410" d="M581.187,233.113v4.745h3.857" transform="translate(848.723 1295.157)" fill="none" stroke="#1e0a05" stroke-linecap="round" stroke-linejoin="round" stroke-width="0.666"/>
    <path id="Path_411" data-name="Path 411" d="M562.4,236.423s60.864-.514,62.253-30.719c0,0-19.648-14.37-39.779-5.573S562.4,236.423,562.4,236.423Z" transform="translate(832.674 1264.539)" fill="#e4a223"/>
    <path id="Path_412" data-name="Path 412" d="M593.751,199.456s-2.346,27.834,19.355,39.131C613.106,238.587,616.333,212.372,593.751,199.456Z" transform="translate(859.396 1266.398)" fill="#e4a223"/>
    <path id="Path_413" data-name="Path 413" d="M578.227,266.579l-28.833,6.8s11.986,74.806,19.75,116.472h81.927s20.781-78.9,29.968-116.472L647.9,264.554Z" transform="translate(821.556 1322.023)" fill="#41acff"/>
    <path id="Path_414" data-name="Path 414" d="M598.879,257.284l-33.937,15.507s1.036,14.83,36.112,14.888c29.883.048,33.564-16.913,33.564-16.913Z" transform="translate(834.842 1315.811)" fill="#e9c6b9"/>
    <path id="Path_415" data-name="Path 415" d="M613.735,268.849s22.812-7.323,37.652,25.633S684.3,369.839,684.3,369.839L653.729,372.5l-44.187-65.617Z" transform="translate(872.952 1325.101)" fill="#41acff"/>
    <path id="Path_416" data-name="Path 416" d="M689.41,345.42h-99.2V326.005l99.2-7.883c7.017,0,12.7,3.776,12.7,14.595h0A12.7,12.7,0,0,1,689.41,345.42Z" transform="translate(856.433 1367.796)" fill="#e9c6b9"/>
    <path id="Path_417" data-name="Path 417" d="M590.484,268.849s-22.81-7.323-37.651,25.633-32.91,75.357-32.91,75.357l30.569,2.659,44.185-65.617Z" transform="translate(796.374 1325.101)" fill="#41acff"/>
    <path id="Path_418" data-name="Path 418" d="M531.927,345.42h99.2V326.005l-99.2-7.883c-7.017,0-12.705,3.776-12.705,14.595h0A12.7,12.7,0,0,0,531.927,345.42Z" transform="translate(795.775 1367.796)" fill="#e9c6b9"/>
    <rect id="Rectangle_51" data-name="Rectangle 51" width="143.607" height="95.466" rx="3.514" transform="translate(1366.692 1618.118)" fill="#eae4e1"/>
    <ellipse id="Ellipse_22" data-name="Ellipse 22" cx="8.801" cy="8.801" rx="8.801" ry="8.801" transform="translate(1429.694 1657.05)" fill="#fff"/>
    <line id="Line_7" data-name="Line 7" x2="278.475" transform="translate(1297.535 1713.583)" fill="none" stroke="#1e0a05" stroke-linecap="round" stroke-linejoin="round" stroke-width="0.489"/>
  </g>
</svg>
