<svg xmlns="http://www.w3.org/2000/svg" width="67.442" height="67.373" viewBox="0 0 67.442 67.373">
  <g id="soft-skills" transform="translate(0 -0.264)">
    <path id="Path_509" data-name="Path 509" d="M132.6,190.574a18.7,18.7,0,1,0,18.7,18.7A18.719,18.719,0,0,0,132.6,190.574Zm-16.728,18.7a16.7,16.7,0,0,1,6.509-13.231,12.213,12.213,0,0,0-2.063,6.524.985.985,0,1,0,1.969.047,10.3,10.3,0,1,1,.632,3.831.985.985,0,1,0-1.847.684,12.21,12.21,0,0,0,2.48,4.042,17.89,17.89,0,0,0-3.421,8.249l-.121.855A16.658,16.658,0,0,1,115.869,209.272Zm29.318,11-.121-.855c-.062-.438-.145-.895-.248-1.356a.985.985,0,0,0-1.923.426c.091.412.165.818.221,1.207l.326,2.3a16.693,16.693,0,0,1-21.691,0l.326-2.3A15.922,15.922,0,0,1,125,212.512a12.251,12.251,0,0,0,15.19.005,16.05,16.05,0,0,1,1.374,2.246.985.985,0,0,0,1.759-.886,17.983,17.983,0,0,0-1.681-2.708,12.263,12.263,0,0,0,1.16-15.138,16.7,16.7,0,0,1,2.381,24.241Z" transform="translate(-98.941 -165.318)" fill="#1082e3"/>
    <path id="Path_510" data-name="Path 510" d="M208.307,311.544a8.307,8.307,0,0,0,7.1-3.968.985.985,0,0,0-1.675-1.036,6.374,6.374,0,0,1-10.859,0,.985.985,0,0,0-1.675,1.036A8.307,8.307,0,0,0,208.307,311.544Z" transform="translate(-174.652 -265.648)" fill="#1082e3"/>
    <path id="Path_511" data-name="Path 511" d="M216.031,257.443a.985.985,0,0,0,.985-.985v-1.146a.985.985,0,1,0-1.97,0v1.146A.985.985,0,0,0,216.031,257.443Z" transform="translate(-186.806 -220.699)" fill="#1082e3"/>
    <path id="Path_512" data-name="Path 512" d="M284.495,257.443a.985.985,0,0,0,.985-.985v-1.146a.985.985,0,1,0-1.97,0v1.146A.985.985,0,0,0,284.495,257.443Z" transform="translate(-246.279 -220.699)" fill="#1082e3"/>
    <path id="Path_513" data-name="Path 513" d="M58.633,9.609A8.8,8.8,0,0,0,52.5,24.728l-2.068,2.5A23.625,23.625,0,0,0,34.706,20.3V17.824a8.808,8.808,0,1,0-1.97,0V20.29a23.609,23.609,0,0,0-15.773,6.88l-2.018-2.442a8.776,8.776,0,1,0-1.555,1.21l2.224,2.692a23.668,23.668,0,1,0,40.666,8.3.985.985,0,0,0-1.881.583A21.734,21.734,0,1,1,52.851,33.8a.985.985,0,1,0,1.74-.923A23.835,23.835,0,0,0,51.772,28.7l2.28-2.76A8.807,8.807,0,1,0,58.633,9.609ZM4.54,15.781a4.2,4.2,0,1,1,4.2,4.2,4.207,4.207,0,0,1-4.2-4.2Zm11.107,2.636a6.8,6.8,0,0,1-.631,2.865A7.087,7.087,0,0,0,13.9,19.17a6.135,6.135,0,0,0,1.017-3.389c0-.16-.008-.318-.02-.475A6.79,6.79,0,0,1,15.647,18.417Zm-13.072-2.8c0,.056,0,.112,0,.168A6.135,6.135,0,0,0,3.588,19.17a7.089,7.089,0,0,0-1.062,1.946,6.812,6.812,0,0,1,.049-5.5ZM4.027,23.3l.146-.76a5.137,5.137,0,0,1,.78-1.892,6.153,6.153,0,0,0,7.579,0,5.138,5.138,0,0,1,.78,1.892l.166.865A6.822,6.822,0,0,1,4.027,23.3ZM29.453,6.436a4.2,4.2,0,1,1,4.2,4.2A4.207,4.207,0,0,1,29.453,6.436ZM29.085,13.2a5.138,5.138,0,0,1,.78-1.892,6.153,6.153,0,0,0,7.579,0,5.138,5.138,0,0,1,.78,1.892l.166.865a6.822,6.822,0,0,1-9.452-.106ZM40.559,9.072a6.8,6.8,0,0,1-.631,2.865A7.088,7.088,0,0,0,38.81,9.825a6.135,6.135,0,0,0,1.017-3.389c0-.158-.007-.314-.019-.469A6.787,6.787,0,0,1,40.559,9.072ZM27.488,6.26c0,.059-.005.117-.005.176A6.135,6.135,0,0,0,28.5,9.825a7.089,7.089,0,0,0-1.062,1.946,6.827,6.827,0,0,1,.05-5.511ZM64.916,21.116a7.085,7.085,0,0,0-1.062-1.946,6.135,6.135,0,0,0,1.017-3.389c0-.057,0-.114,0-.171a6.827,6.827,0,0,1,.048,5.506ZM54.5,15.781a4.2,4.2,0,1,1,4.2,4.2A4.207,4.207,0,0,1,54.5,15.781Zm-1.951-.474c-.012.157-.018.315-.018.474a6.135,6.135,0,0,0,1.017,3.389,7.087,7.087,0,0,0-1.118,2.112,6.82,6.82,0,0,1,.119-5.975Zm1.418,8.1.166-.865a5.137,5.137,0,0,1,.78-1.892,6.153,6.153,0,0,0,7.579,0,5.14,5.14,0,0,1,.78,1.892l.146.76a6.822,6.822,0,0,1-9.452.106Z" fill="#1082e3"/>
  </g>
</svg>
