<svg id="Group_201" data-name="Group 201" xmlns="http://www.w3.org/2000/svg" width="66.838" height="66.798" viewBox="0 0 66.838 66.798">
  <path id="Path_500" data-name="Path 500" d="M31.006,67.165c-1.291-.525-3.69-1.5-2.463-4.6a74.378,74.378,0,0,1,3.371-6.98c.018-.027.369-.551.995-1.455L19.519,52.4a1.427,1.427,0,0,1-.827-2.425l6.846-6.85c1.732-1.729,3.425-2.237,7.874-2.369,4.893-.147,8.273-.185,9.64-.194,3.23-4.042,6.961-8.454,10.946-12.67,12.682-13.407,27.33-8.81,27.589-8.729a1.429,1.429,0,0,1,.915.917c.2.6,4.653,14.927-8.729,27.587-4.214,3.983-8.624,7.713-12.668,10.945-.009,1.361-.048,4.726-.2,9.641-.13,4.452-.64,6.146-2.369,7.877l-6.847,6.846a1.427,1.427,0,0,1-2.425-.828l-1.733-13.4c-.959.665-1.516,1.037-1.565,1.068A75.208,75.208,0,0,1,39.1,73.123a4.2,4.2,0,0,1-1.545.332c-1.915,0-2.574-1.614-3.055-2.795a6.408,6.408,0,0,0-1.276-2.218A6.416,6.416,0,0,0,31.006,67.165ZM33.5,43.612c-4.127.12-4.945.54-5.941,1.532l-4.793,4.8,12.011,1.553c1.51-2.109,3.567-4.9,6.008-8.051C39.042,43.469,36.588,43.517,33.5,43.612ZM79.983,21.693c-2.943-.669-14.08-2.228-23.909,8.163A238.318,238.318,0,0,0,34.717,56.534a21.822,21.822,0,0,0,4.184,6.23,21.949,21.949,0,0,0,6.227,4.182A237.467,237.467,0,0,0,71.81,45.592C82.354,35.621,80.676,24.624,79.983,21.693ZM51.728,78.9l4.793-4.791c.995-1,1.412-1.814,1.535-5.943.093-3.092.142-5.545.168-7.288-3.139,2.436-5.931,4.491-8.051,6.007ZM35.244,66.424a8.924,8.924,0,0,1,1.9,3.16c.152.376.384.945.4,1.016h.008a1.456,1.456,0,0,0,.494-.131c1.3-.515,2.8-1.234,4.04-1.851a21.5,21.5,0,0,1-9.041-9.039c-.622,1.244-1.339,2.743-1.852,4.04-.1.243-.124.388-.146.416a6.014,6.014,0,0,0,1.032.487A8.922,8.922,0,0,1,35.244,66.424Z" transform="translate(-16.531 -18.338)" fill="#1082e3"/>
  <path id="Path_501" data-name="Path 501" d="M183.279,182.411a8.886,8.886,0,0,1,8.015-3.511,1.427,1.427,0,1,1-.414,2.824,6.031,6.031,0,0,0-5.325,2.412c-1.578,2.078-2.78,6.481-3.41,9.4,2.916-.629,7.316-1.83,9.4-3.411a6.025,6.025,0,0,0,2.409-5.325,1.428,1.428,0,0,1,2.825-.414,8.9,8.9,0,0,1-3.509,8.014c-3.78,2.867-12.334,4.285-12.7,4.346a1.666,1.666,0,0,1-.23.018,1.427,1.427,0,0,1-1.409-1.657C179,194.742,180.413,186.19,183.279,182.411Z" transform="translate(-178.917 -129.964)" fill="#1082e3"/>
  <path id="Path_502" data-name="Path 502" d="M61.715,50.928a7.7,7.7,0,1,1-10.894,0A7.886,7.886,0,0,1,61.715,50.928ZM52.841,59.8a4.959,4.959,0,0,0,6.856,0,4.851,4.851,0,1,0-6.856,0Z" transform="translate(-6.363 -39.484)" fill="#1082e3"/>
</svg>
