<svg xmlns="http://www.w3.org/2000/svg" width="368.744" height="503.314" viewBox="0 0 368.744 503.314">
  <g id="Group_1130" data-name="Group 1130" transform="translate(-293.74 -1248.575)">
    <text id="_10:30" data-name="10:30" transform="translate(338.158 1263.575)" fill="#262a42" font-size="15" font-family="Montserrat-SemiBold, Montserrat" font-weight="600"><tspan x="-19.147" y="0">10:30</tspan></text>
    <g id="Group_176" data-name="Group 176" transform="translate(596.305 1253.432)">
      <path id="Path_467" data-name="Path 467" d="M222.094,82.532a1.575,1.575,0,1,1-1.574,1.574A1.573,1.573,0,0,1,222.094,82.532Z" transform="translate(-215.317 -75.53)" fill="#262a42"/>
      <path id="Path_468" data-name="Path 468" d="M227.342,82.3a.506.506,0,0,1-.069-.066l-.075-.066a.31.31,0,0,0-.039-.034,5.143,5.143,0,0,0-7.1.167l-.229.229-.317.315a.989.989,0,0,0,1.4,1.4l.547-.545a3.176,3.176,0,0,1,4.484,0l.39.382a.983.983,0,0,0,1.394-1.387Z" transform="translate(-216.797 -77.521)" fill="#262a42"/>
      <path id="Path_469" data-name="Path 469" d="M231.321,82.1,231,81.772l-.006-.006-.257-.259a.9.9,0,0,0-.148-.118,8.58,8.58,0,0,0-11.59.268.464.464,0,0,1-.047.039l-.592.592a.9.9,0,0,0,1.276,1.276l.592-.59.011-.015a6.774,6.774,0,0,1,9.347-.049l.467.465a.9.9,0,0,0,1.272-1.276Z" transform="translate(-218.093 -79.266)" fill="#262a42"/>
    </g>
    <path id="Path_470" data-name="Path 470" d="M229.4,89.988a1.188,1.188,0,0,1-1.239-1.136l-.015-8.91a1.2,1.2,0,0,1,1.231-1.136l20.686-.036a1.209,1.209,0,0,1,1.242,1.136l0,1.842,1.593-.009.013,5.251-1.6.009.006,1.821a1.192,1.192,0,0,1-1.237,1.134Zm21.042-10.413-21.434.034.009,9.579,21.439-.034Zm-20.6.926,15.591-.028.013,7.8-15.593.015Z" transform="translate(389.715 1173.596)" fill="#262a42"/>
    <path id="Path_471" data-name="Path 471" d="M213.84,90.082h0a1.176,1.176,0,0,1-1.177-1.175V79.862a1.176,1.176,0,0,1,1.177-1.175h0a1.175,1.175,0,0,1,1.175,1.175v9.045A1.175,1.175,0,0,1,213.84,90.082Z" transform="translate(371.998 1173.502)" fill="#262a42"/>
    <path id="Path_472" data-name="Path 472" d="M211.7,87.888h0a1.174,1.174,0,0,1-1.175-1.175V81.779A1.174,1.174,0,0,1,211.7,80.6h0a1.176,1.176,0,0,1,1.177,1.175v4.934A1.176,1.176,0,0,1,211.7,87.888Z" transform="translate(369.553 1175.696)" fill="#262a42"/>
    <path id="Path_473" data-name="Path 473" d="M209.566,86.882h0a1.174,1.174,0,0,1-1.175-1.175V82.66a1.176,1.176,0,0,1,1.175-1.177h0a1.176,1.176,0,0,1,1.175,1.177v3.047A1.174,1.174,0,0,1,209.566,86.882Z" transform="translate(367.109 1176.702)" fill="#262a42"/>
    <path id="Path_474" data-name="Path 474" d="M207.452,85.945h0a1.176,1.176,0,0,1-1.177-1.175V83.479a1.178,1.178,0,0,1,1.177-1.177h0a1.176,1.176,0,0,1,1.175,1.177V84.77A1.174,1.174,0,0,1,207.452,85.945Z" transform="translate(364.688 1177.639)" fill="#262a42"/>
    <circle id="Ellipse_27" data-name="Ellipse 27" cx="130.371" cy="130.371" r="130.371" transform="translate(293.74 1567.517) rotate(-45)" fill="#eee"/>
    <path id="Path_475" data-name="Path 475" d="M254.495,239.621l-34.194.051a2.908,2.908,0,0,1-2.915-2.906h0a2.911,2.911,0,0,1,2.906-2.915l34.2-.051a2.911,2.911,0,0,1,2.915,2.906h0A2.913,2.913,0,0,1,254.495,239.621Z" transform="translate(356.101 1301.787)" fill="#41acff"/>
    <path id="Path_476" data-name="Path 476" d="M123.618,295.364l-27.183.053a2.912,2.912,0,0,1-2.917-2.906h0a2.912,2.912,0,0,1,2.908-2.915l27.183-.053a2.912,2.912,0,0,1,2.917,2.906h0A2.911,2.911,0,0,1,123.618,295.364Z" transform="translate(262.853 1343.75)" fill="#ec41ff"/>
    <rect id="Rectangle_65" data-name="Rectangle 65" width="9.963" height="9.649" rx="1.133" transform="translate(623.146 1394.609) rotate(-0.079)" fill="#0984e3"/>
    <rect id="Rectangle_66" data-name="Rectangle 66" width="8.144" height="7.887" rx="1.133" transform="translate(342.337 1467.813) rotate(-0.079)" fill="#41acff"/>
    <rect id="Rectangle_67" data-name="Rectangle 67" width="104.677" height="32.221" rx="1.958" transform="translate(496.395 1356.188)" fill="#41acff"/>
    <path id="Path_477" data-name="Path 477" d="M195.669,146.912l10.259,14.678a2.665,2.665,0,0,0,4.384-.018l10.072-14.661Z" transform="translate(339.752 1236.376)" fill="#41acff"/>
    <path id="Path_478" data-name="Path 478" d="M185.923,136.444l1.9,3.841,4.239.616-3.067,2.99.724,4.222-3.791-1.993-3.792,1.993.724-4.222-3.067-2.99,4.239-.616Z" transform="translate(327.798 1228.496)" fill="#e5a931"/>
    <path id="Path_479" data-name="Path 479" d="M195.639,136.444l1.9,3.841,4.239.616-3.067,2.99.724,4.222-3.791-1.993-3.792,1.993.724-4.222L189.5,140.9l4.239-.616Z" transform="translate(335.111 1228.496)" fill="#e5a931"/>
    <path id="Path_480" data-name="Path 480" d="M205.354,136.444l1.9,3.841,4.239.616-3.067,2.99.724,4.222-3.791-1.993-3.791,1.993.724-4.222-3.067-2.99,4.239-.616Z" transform="translate(342.426 1228.496)" fill="#e5a931"/>
    <path id="Path_481" data-name="Path 481" d="M215.069,136.444l1.9,3.841,4.239.616-3.067,2.99.724,4.222-3.792-1.993-3.791,1.993.724-4.222-3.067-2.99,4.239-.616Z" transform="translate(349.739 1228.496)" fill="#e5a931"/>
    <path id="Path_482" data-name="Path 482" d="M226.155,136.444l2.319,4.7,5.186.754-3.753,3.658.886,5.165-4.639-2.439-4.638,2.439.886-5.165-3.753-3.658,5.186-.754Z" transform="translate(378.85 1186.263)" fill="#fff"/>
    <ellipse id="Ellipse_28" data-name="Ellipse 28" cx="31.478" cy="31.478" rx="31.478" ry="31.478" transform="translate(344.594 1370.794)" fill="#41acff"/>
    <path id="Path_483" data-name="Path 483" d="M120.229,157.222h-4.7v-2.2a5.751,5.751,0,0,0-11.5,0v2.2h-4.7a1.218,1.218,0,0,0-1.22,1.218v13.418a4.274,4.274,0,0,0,4.268,4.268h14.811a4.277,4.277,0,0,0,4.268-4.268V158.44A1.215,1.215,0,0,0,120.229,157.222Zm-13.767-2.2a3.31,3.31,0,0,1,6.62,0v2.2h-6.62Zm12.545,16.832a1.831,1.831,0,0,1-1.83,1.83H102.366a1.831,1.831,0,0,1-1.828-1.83v-12.2h3.485v1.309a1.22,1.22,0,0,0,2.44,0V159.66h6.62v1.309a1.219,1.219,0,0,0,2.438,0V159.66h3.486Z" transform="translate(266.3 1238.158)" fill="#fff"/>
    <path id="Path_484" data-name="Path 484" d="M157.35,178.792l-8.468-10.776a9.406,9.406,0,0,0-13.1-1.667h0a9.4,9.4,0,0,0-2.652,11.795l11.679,22.608Z" transform="translate(291.882 1249.557)" fill="#ecb0a9"/>
    <path id="Path_485" data-name="Path 485" d="M212.033,256.527,247.8,359.633l-73.734,28.488-28.455-83.915Z" transform="translate(302.065 1318.896)" fill="#ecb0a9"/>
    <path id="Path_486" data-name="Path 486" d="M190.727,392.539l-70.091-25.9a19.145,19.145,0,0,1-11.321-24.6l63.713-172.1a19.147,19.147,0,0,1,24.6-11.321l70.091,25.907a19.145,19.145,0,0,1,11.321,24.6l-63.713,172.1A19.146,19.146,0,0,1,190.727,392.539Z" transform="translate(273.845 1244.29)"/>
    <rect id="Rectangle_68" data-name="Rectangle 68" width="96.439" height="146.866" transform="matrix(0.938, 0.347, -0.347, 0.938, 449.476, 1430.953)" fill="#fff"/>
    <path id="Path_487" data-name="Path 487" d="M167.944,170.668a1.156,1.156,0,0,0-.791,2.172l32,11.83a1.2,1.2,0,0,0,.883-.035,1.155,1.155,0,0,0-.082-2.133l-32-11.83Z" transform="translate(317.717 1254.209)" fill="#fff"/>
    <path id="Path_488" data-name="Path 488" d="M145.643,268.813c-.063-.023-.126-.046-.189-.067a8.835,8.835,0,0,0-11.179,5.59,8.838,8.838,0,1,0,16.769,5.59h0a8.833,8.833,0,0,0-5.4-11.113Z" transform="translate(293.195 1327.75)" fill="#fff"/>
    <rect id="Rectangle_69" data-name="Rectangle 69" width="82.217" height="23.984" rx="1.968" transform="translate(422.596 1523.256) rotate(20.475)" fill="#41acff"/>
    <text id="Shop_now" data-name="Shop now" transform="translate(433.934 1540.395) rotate(20.475)" fill="#fff" font-size="6" font-family="Montserrat-Black, Montserrat" font-weight="800"><tspan x="0" y="0">Shop now</tspan></text>
    <path id="Rectangle_70" data-name="Rectangle 70" d="M2.57,0H79.648a2.57,2.57,0,0,1,2.57,2.57V53.724a2.569,2.569,0,0,1-2.569,2.569H2.569A2.569,2.569,0,0,1,0,53.724V2.57A2.57,2.57,0,0,1,2.57,0Z" transform="translate(445.62 1461.593) rotate(20.475)" fill="#f6f0e7"/>
    <g id="Group_197" data-name="Group 197" transform="translate(456.248 1482.381)">
      <path id="Path_489" data-name="Path 489" d="M186.544,228.566a18.607,18.607,0,1,1-10.924-23.94A18.607,18.607,0,0,1,186.544,228.566Z" transform="translate(-150.499 -203.445)" fill="#0984e3"/>
      <path id="Path_490" data-name="Path 490" d="M156.507,212.909l4.745,7.2,11.446-6.961" transform="translate(-145.976 -196.321)" fill="none" stroke="#fff" stroke-linecap="round" stroke-linejoin="round" stroke-width="1.831"/>
    </g>
    <path id="Path_491" data-name="Path 491" d="M201.16,330.617l15.316-30.657a91.661,91.661,0,0,0,8.293-25.17l9.4-71.757A2.762,2.762,0,0,0,231.3,199.8c-6.79.338-22.142,7.307-23.493,34.825l-9.222,25.011s-38.692,36.932-17.972,79.12Z" transform="translate(323.823 1276.192)" fill="#ecb0a9"/>
    <path id="Path_492" data-name="Path 492" d="M148.635,196.464l-8.738-5.178s-4.322-2.212-9.136,4.533,1.784,16.164,1.784,16.164l.994-2.78,3.954,2.983a9.638,9.638,0,0,0,12.967-1.237h0A9.64,9.64,0,0,0,148.635,196.464Z" transform="translate(289.566 1269.52)" fill="#ecb0a9"/>
    <path id="Path_493" data-name="Path 493" d="M146.091,217.092,133.346,208.8s-4.321-2.212-9.134,4.533,1.783,16.164,1.783,16.164l1-2.78,7.96,6.1a9.638,9.638,0,0,0,12.966-1.239h0A9.639,9.639,0,0,0,146.091,217.092Z" transform="translate(284.635 1282.707)" fill="#ecb0a9"/>
    <path id="Path_494" data-name="Path 494" d="M136.329,230.826l-13.689-4.9s-5.257-1.117-7.148,6.307c0,0-2.336,4.82,5.306,13.362l1.551-4.335,9.083,3.25A7.267,7.267,0,0,0,140.8,239.9h0A7.27,7.27,0,0,0,136.329,230.826Z" transform="translate(279.141 1295.814)" fill="#ecb0a9"/>
    <path id="Path_495" data-name="Path 495" d="M267,364.794,242.465,295a7,7,0,0,0-8.8-4.335l-81.734,26.9a7,7,0,0,0-4.468,8.822l11.9,38.408Z" transform="translate(303.205 1344.33)" fill="#41acff"/>
    <line id="Line_17" data-name="Line 17" x2="222.422" transform="translate(369.53 1709.536)" fill="none" stroke="#1e0a05" stroke-linecap="round" stroke-linejoin="round" stroke-width="0.489"/>
  </g>
</svg>
