<svg xmlns="http://www.w3.org/2000/svg" width="372.386" height="500.595" viewBox="0 0 372.386 500.595">
  <g id="Group_1129" data-name="Group 1129" transform="translate(-766.012 -1207)">
    <g id="Group_1124" data-name="Group 1124" transform="translate(0 13)">
      <text id="_10:30" data-name="10:30" transform="translate(787.012 1209)" fill="#fff" font-size="16" font-family="Montserrat-SemiBold, Montserrat" font-weight="600"><tspan x="-20.424" y="0">10:30</tspan></text>
      <g id="Group_125" data-name="Group 125" transform="translate(1084.746 1202)">
        <path id="Path_419" data-name="Path 419" d="M433.365,82.532a1.806,1.806,0,1,1-1.8,1.8A1.8,1.8,0,0,1,433.365,82.532Z" transform="translate(-425.594 -74.504)" fill="#fff"/>
        <path id="Path_420" data-name="Path 420" d="M439.573,82.521a.8.8,0,0,1-.081-.076l-.084-.076c-.012-.015-.029-.025-.044-.039a5.9,5.9,0,0,0-8.144.192l-.263.263-.361.361a1.133,1.133,0,0,0,1.6,1.6l.629-.624a3.638,3.638,0,0,1,5.138,0l.45.438a1.125,1.125,0,0,0,1.591,0,1.112,1.112,0,0,0,.329-.794,1.127,1.127,0,0,0-.322-.794Z" transform="translate(-427.482 -77.042)" fill="#fff"/>
        <path id="Path_421" data-name="Path 421" d="M444.3,82.513l-.371-.374-.01-.007-.293-.3a1.277,1.277,0,0,0-.17-.135,9.839,9.839,0,0,0-13.29.307.349.349,0,0,1-.054.044l-.678.678a1.034,1.034,0,0,0,1.463,1.463l.679-.676.012-.017a7.766,7.766,0,0,1,10.716-.057l.536.533a1.033,1.033,0,0,0,1.46-1.463Z" transform="translate(-429.134 -79.266)" fill="#fff"/>
      </g>
      <path id="Path_422" data-name="Path 422" d="M440.626,91.631a1.362,1.362,0,0,1-1.421-1.3l-.02-10.214a1.373,1.373,0,0,1,1.413-1.3l23.713-.042a1.382,1.382,0,0,1,1.423,1.3l0,2.112,1.829-.01.015,6.02-1.831.01.005,2.087a1.366,1.366,0,0,1-1.416,1.3ZM464.75,79.693l-24.576.039.012,10.981,24.578-.039ZM441.13,80.755,459,80.723l.015,8.938-17.877.017Z" transform="translate(670.271 1122.231)" fill="#fff"/>
      <path id="Path_423" data-name="Path 423" d="M425.051,91.75h0A1.346,1.346,0,0,1,423.7,90.4V80.034a1.346,1.346,0,0,1,1.347-1.347h0a1.346,1.346,0,0,1,1.347,1.347V90.4A1.346,1.346,0,0,1,425.051,91.75Z" transform="translate(647.693 1121.313)" fill="#fff"/>
      <path id="Path_424" data-name="Path 424" d="M422.915,88.955h0a1.346,1.346,0,0,1-1.347-1.347V81.951a1.346,1.346,0,0,1,1.347-1.347h0a1.346,1.346,0,0,1,1.347,1.347v5.657A1.346,1.346,0,0,1,422.915,88.955Z" transform="translate(644.579 1124.396)" fill="#fff"/>
      <path id="Path_425" data-name="Path 425" d="M420.781,87.673h0a1.348,1.348,0,0,1-1.35-1.347V82.833a1.35,1.35,0,0,1,1.35-1.35h0a1.35,1.35,0,0,1,1.347,1.35v3.493A1.348,1.348,0,0,1,420.781,87.673Z" transform="translate(641.462 1125.517)" fill="#fff"/>
      <path id="Path_426" data-name="Path 426" d="M418.663,86.479h0a1.346,1.346,0,0,1-1.347-1.347v-1.48a1.348,1.348,0,0,1,1.347-1.35h0a1.35,1.35,0,0,1,1.35,1.35v1.48A1.348,1.348,0,0,1,418.663,86.479Z" transform="translate(638.378 1126.698)" fill="#fff"/>
    </g>
    <ellipse id="Ellipse_23" data-name="Ellipse 23" cx="155.061" cy="155.061" rx="155.061" ry="155.061" transform="translate(767.012 1638.547) rotate(-77.136)" fill="#eee"/>
    <ellipse id="Ellipse_24" data-name="Ellipse 24" cx="36.834" cy="36.834" rx="36.834" ry="36.834" transform="translate(787.559 1363.346)" fill="#41acff"/>
    <path id="Path_427" data-name="Path 427" d="M327.017,213.608c-5.573.1-11.214.171-16.338-.183-1.622-.113-3.023-2.689-1.053-3.5a3.645,3.645,0,0,1-2.033-1.766,1.742,1.742,0,0,1,.986-2.3c-1.933.48-2.694-2.587-1.186-3.577a4.514,4.514,0,0,1-1.63-2.612,2.622,2.622,0,0,1,1.176-2.7,4.221,4.221,0,0,1,2.008-.346l6.953-.052c-.628-3.625-.817-7.578,1.026-10.762.555-.959,2.047-2.11,3.231-1.372,1.109.692.8,2.412.746,3.5a12.25,12.25,0,0,0,6.319,11.174S326.959,208.706,327.017,213.608Z" transform="translate(501.679 1198.398)" fill="#fff"/>
    <rect id="Rectangle_55" data-name="Rectangle 55" width="8.421" height="14.496" transform="translate(839.138 1411.993) rotate(180)" fill="#fff"/>
    <rect id="Rectangle_56" data-name="Rectangle 56" width="93.281" height="62.554" rx="2.024" transform="translate(1013.556 1286.096)" fill="#0984e3"/>
    <path id="Path_428" data-name="Path 428" d="M419.631,164.892l12.613,18.052a3.281,3.281,0,0,0,5.393-.021l12.386-18.031Z" transform="translate(625.24 1194.96)" fill="#0984e3"/>
    <path id="Path_429" data-name="Path 429" d="M453.28,173.178H419.054a.815.815,0,0,1-.815-.815V151.175a.815.815,0,0,1,.815-.815H453.28a.816.816,0,0,1,.815.815v21.188A.816.816,0,0,1,453.28,173.178Zm-33.411-1.63h32.6V151.99h-32.6Z" transform="translate(623.73 1161.696)" fill="#fff"/>
    <path id="Path_430" data-name="Path 430" d="M462.621,156.842h-44.2a.961.961,0,0,1-.961-.961v-7.687a.961.961,0,0,1,.961-.961h44.2a.963.963,0,0,1,.961.961v7.687A.963.963,0,0,1,462.621,156.842Zm-43.242-1.922h42.28v-5.765h-42.28Z" transform="translate(638.583 1124.027)" fill="#fff"/>
    <path id="Path_431" data-name="Path 431" d="M425.275,151.142h1.63V170.7h-1.63Z" transform="translate(631.362 1180.044)" fill="#fff"/>
    <path id="Path_432" data-name="Path 432" d="M427.62,151.142h1.63V170.7h-1.63Z" transform="translate(633.906 1180.044)" fill="#fff"/>
    <path id="Path_433" data-name="Path 433" d="M425.275,148.015h1.63V152.9h-1.63Z" transform="translate(631.362 1176.653)" fill="#fff"/>
    <path id="Path_434" data-name="Path 434" d="M427.62,148.015h1.63V152.9h-1.63Z" transform="translate(633.906 1176.653)" fill="#fff"/>
    <path id="Path_435" data-name="Path 435" d="M432.314,153.951a.815.815,0,0,1-.813-.815c0-8.089-3.7-8.965-5.3-8.965-2.468,0-2.783,1.293-2.783,2.42,0,2.318,3.667,5.729,4.82,5.729a.815.815,0,1,1,0,1.63c-2.024,0-6.45-4.2-6.45-7.359,0-2.575,1.607-4.049,4.413-4.049,1.624,0,6.926.763,6.926,10.593A.815.815,0,0,1,432.314,153.951Z" transform="translate(627.581 1170.717)" fill="#fff"/>
    <path id="Path_436" data-name="Path 436" d="M431.337,153.951a.815.815,0,0,1,0-1.63c1.153,0,4.82-3.411,4.82-5.729,0-1.128-.315-2.42-2.783-2.42-1.593,0-5.3.876-5.3,8.965a.814.814,0,1,1-1.628,0c0-9.83,5.3-10.593,6.926-10.593,2.8,0,4.413,1.474,4.413,4.049C437.787,149.752,433.361,153.951,431.337,153.951Z" transform="translate(632.635 1170.717)" fill="#fff"/>
    <path id="Path_437" data-name="Path 437" d="M361.922,288.643l-63.953.061a3.462,3.462,0,0,1-3.467-3.457h0a3.465,3.465,0,0,1,3.459-3.467l63.95-.06a3.461,3.461,0,0,1,3.467,3.457h0A3.461,3.461,0,0,1,361.922,288.643Z" transform="translate(489.504 1304.192)" fill="#ec41ff"/>
    <path id="Path_438" data-name="Path 438" d="M460.777,207.129l-30.246.063a3.464,3.464,0,0,1-3.469-3.457h0a3.462,3.462,0,0,1,3.459-3.467l30.246-.063a3.461,3.461,0,0,1,3.467,3.457h0A3.461,3.461,0,0,1,460.777,207.129Z" transform="translate(633.301 1233.267)" fill="#0984e3"/>
    <rect id="Rectangle_57" data-name="Rectangle 57" width="9.687" height="9.381" rx="1.133" transform="translate(1089.451 1629.1) rotate(-0.079)" fill="#0984e3"/>
    <rect id="Rectangle_58" data-name="Rectangle 58" width="9.687" height="9.381" rx="1.133" transform="translate(856.376 1315.845) rotate(-0.079)" fill="#0984e3"/>
    <path id="Path_439" data-name="Path 439" d="M457.769,228.306c-13.793-19.357-16.113-51.185-16.113-51.185l-33.9-12.163v-1l-2.049.5-2.049-.5v1L370,176.831s-3.661,33.09-17.454,52.447c-13.63,19.128-3.849,43.021,53.158,39.5C462.705,272.3,471.4,247.436,457.769,228.306Z" transform="translate(546.536 1176.443)" fill="#120e3f"/>
    <path id="Path_440" data-name="Path 440" d="M406.021,329.392l14.829,88.67h50.977c-.021-.334-.04-.669-.054-.992-.888-20.076-3.023-112.4-33.363-155.576l-.64-6.83H372.01l-.1,6.809c-7.647,11.608-23.545,46.722-25.459,95.5,0,0-1.155,17.412,2.562,61.094h48.884Z" transform="translate(545.669 1274.841)" fill="#00487f"/>
    <line id="Line_8" data-name="Line 8" x2="66.502" transform="translate(917.577 1548.536)" fill="none" stroke="#1e0a05" stroke-linecap="round" stroke-linejoin="round" stroke-width="0.489"/>
    <line id="Line_9" data-name="Line 9" y1="6.162" x2="31.269" transform="translate(938.223 1602.3)" fill="none" stroke="#1e0a05" stroke-linecap="round" stroke-linejoin="round" stroke-width="0.489"/>
    <path id="Path_441" data-name="Path 441" d="M393.906,208.12s38.474-2.393,44.764,30.117c4,20.691,20.889,60.008,18.429,86.424-1.553,16.68-22.53,27.354-40.482,20.129-4.7-1.891-8.487-4.8-9.709-9.248C402.837,320.715,393.906,208.12,393.906,208.12Z" transform="translate(597.334 1224.31)" fill="#0984e3"/>
    <path id="Path_442" data-name="Path 442" d="M388.571,206.473l-30.992,3c-4.626,1.243-8.083,8.862-7.507,13.805l17.892,94.886h65.76L453.585,225c.575-4.964-2.689-13.293-7.343-14.512l-31.092-4.522Z" transform="translate(549.716 1222.014)" fill="#fff"/>
    <path id="Path_443" data-name="Path 443" d="M390.411,207.28s-38.475-2.393-44.764,30.117c-4,20.691-20.889,60.008-18.429,86.424,1.553,16.68,22.528,27.354,40.482,20.13,4.7-1.893,8.487-4.8,9.709-9.25C381.478,319.875,390.411,207.28,390.411,207.28Z" transform="translate(524.728 1223.399)" fill="#0984e3"/>
    <path id="Path_444" data-name="Path 444" d="M392.408,206.633s8.062,78.262,4.03,153.673l-39.932,4.378s1.576-41.545,1.049-54.7c-1.655-41.383-20.1-81.515-20.1-81.515s10.092-17.935,27.225-19.785Z" transform="translate(536.103 1222.74)" fill="#0984e3"/>
    <line id="Line_10" data-name="Line 10" y1="29.112" x2="2.386" transform="translate(894.921 1473.469)" fill="none" stroke="#1e0a05" stroke-linecap="round" stroke-linejoin="round" stroke-width="0.489"/>
    <path id="Path_445" data-name="Path 445" d="M391.595,206.637s-9.135,117.073-8.719,155.153l43.668,1.774s-2.775-92.564,1.374-140.02c.475-5.433-3.142-11.443-8.47-12.6C412.857,209.512,403.188,208.615,391.595,206.637Z" transform="translate(585.354 1222.744)" fill="#0984e3"/>
    <line id="Line_11" data-name="Line 11" x1="2.386" y1="29.112" transform="translate(1008.371 1473.469)" fill="none" stroke="#1e0a05" stroke-linecap="round" stroke-linejoin="round" stroke-width="0.489"/>
    <rect id="Rectangle_59" data-name="Rectangle 59" width="36.335" height="63.986" rx="2.561" transform="translate(935.796 1435.751)" fill="#310b68"/>
    <rect id="Rectangle_60" data-name="Rectangle 60" width="36.335" height="63.986" rx="2.561" transform="translate(935.796 1438.781)" fill="#20063f"/>
    <rect id="Rectangle_61" data-name="Rectangle 61" width="36.335" height="63.986" rx="2.561" transform="translate(935.796 1435.751)" fill="#23557b"/>
    <g id="Group_153" data-name="Group 153" transform="translate(917.354 1456.243)">
      <path id="Path_446" data-name="Path 446" d="M376.573,229.083l-.035-.536c-.252-3.907-4.826-4.97-7.5-2.108-3.384,3.627-7.547,10.088-10.576,24.092l9.932,10.259s27.423-8.671,33.752-20.322a2.539,2.539,0,0,0-.156-2.689c-.994-1.124-1.787-1.024-1.787-1.024a3.833,3.833,0,0,0,1.082-4.007s-.492-1.549-1.726-1.757c0,0,.892-4.326-2.779-4.528l.088-.125a3.251,3.251,0,0,0-.267-4.074h0a3.243,3.243,0,0,0-4.286-.44C388.8,224.351,380.916,228.883,376.573,229.083Z" transform="translate(-358.465 -217.688)" fill="#ecb0a9"/>
      <path id="Path_447" data-name="Path 447" d="M372.975,232.12a33.436,33.436,0,0,0,.131-8.531c-.442-3.1-3.065-4.833-5.5-3.738h0c-2.064.926-2.779,3.338-2.329,5.948.621,3.6-.826,6.9-2.181,12.069-2.639,10.078-.254,16.37-.254,16.37Z" transform="translate(-354.785 -219.522)" fill="#ecb0a9"/>
    </g>
    <path id="Path_448" data-name="Path 448" d="M387.684,229.2l-53.216,53.991,27.318,37.938,56.123-69.086Z" transform="translate(532.857 1247.217)" fill="#0984e3"/>
    <line id="Line_12" data-name="Line 12" x1="43.704" y2="44.636" transform="translate(876.838 1476.414)" fill="none" stroke="#1e0a05" stroke-linecap="round" stroke-linejoin="round" stroke-width="0.489"/>
    <line id="Line_13" data-name="Line 13" x1="39.49" y2="45.805" transform="translate(893.572 1521.05)" fill="none" stroke="#1e0a05" stroke-linecap="round" stroke-linejoin="round" stroke-width="0.489"/>
    <g id="Group_158" data-name="Group 158" transform="translate(945.74 1462.959)">
      <path id="Path_449" data-name="Path 449" d="M398.232,229.958l.24-6.926s10.361-2.616,17.956,27.923l-8.769,11.408s-28.52-8.675-35.206-20.129a2.534,2.534,0,0,1,.075-2.691c.959-1.155,1.753-1.08,1.753-1.08a3.828,3.828,0,0,1-1.2-3.969s.444-1.564,1.67-1.812c0,0-1.021-4.295,2.641-4.609l-.094-.123a3.254,3.254,0,0,1,.142-4.08h0a3.243,3.243,0,0,1,4.272-.571C385.3,225.717,393.885,229.889,398.232,229.958Z" transform="translate(-372.081 -222.744)" fill="#ecb0a9"/>
    </g>
    <path id="Path_450" data-name="Path 450" d="M406.526,228.762l51.379,54-23.59,37.647-57.943-67.568Z" transform="translate(578.313 1246.744)" fill="#0984e3"/>
    <line id="Line_14" data-name="Line 14" x2="41.023" y2="44.021" transform="translate(984.839 1475.506)" fill="none" stroke="#1e0a05" stroke-linecap="round" stroke-linejoin="round" stroke-width="0.489"/>
    <line id="Line_15" data-name="Line 15" x2="40.069" y2="48.965" transform="translate(971.397 1518.984)" fill="none" stroke="#1e0a05" stroke-linecap="round" stroke-linejoin="round" stroke-width="0.489"/>
    <path id="Path_451" data-name="Path 451" d="M393.874,192.367a64.459,64.459,0,0,0-8.66,1.061c-5.045.938-9.165-1.712-10.178,1.7-.021.067-4.12-3.415-4.12-3.415l-3.11,30.529s15.4,8.17,29.979-.423Z" transform="translate(569.022 1206.559)" fill="#e7b1a0"/>
    <path id="Path_452" data-name="Path 452" d="M369.228,199.653l25.512,15.182-2.68-24.52Z" transform="translate(570.564 1205.038)" fill="#cc8374"/>
    <path id="Path_453" data-name="Path 453" d="M430.021,190.434c0,20.727-16.128,37.528-36.023,37.528s-36.023-16.8-36.023-37.528S374.1,155.61,394,155.61,430.021,169.709,430.021,190.434Z" transform="translate(558.357 1167.391)" fill="#120e3f"/>
    <path id="Path_454" data-name="Path 454" d="M418.869,187.849a128.207,128.207,0,0,1-3.411,29.183c-1.668,7.069-6.361,12.01-12.994,15.986l-1.207.726a23.284,23.284,0,0,1-23.21.25h0c-7.188-4.088-12.219-9.479-13.768-17.066a187.383,187.383,0,0,1-3.123-29.078s-2.681-29.762,28.445-29.183S418.869,187.849,418.869,187.849Z" transform="translate(561.745 1170.697)" fill="#e7b1a0"/>
    <path id="Path_455" data-name="Path 455" d="M369.815,195.706c-5.252,5.074-17.3-8.362-12.44-14.312,4.474-5.487,9.786-.7,9.786-.7l1.076,5.593,1.6,7.532.415,1.689Z" transform="translate(556.48 1192.502)" fill="#e7b1a0"/>
    <path id="Path_456" data-name="Path 456" d="M387.4,195.809c5.564,4.382,17.385-10.828,11.987-15.515a6.451,6.451,0,0,0-9.607.461l-.976,5.61-1.466,7.557-.384,1.695Z" transform="translate(589.791 1192.03)" fill="#e7b1a0"/>
    <path id="Path_457" data-name="Path 457" d="M358.561,183.495l6.624,8.383-1.335-20.431Z" transform="translate(558.993 1184.571)" fill="#120e3f"/>
    <path id="Path_458" data-name="Path 458" d="M394.131,183.495l-5.993,8.187,1.372-20.235Z" transform="translate(591.077 1184.571)" fill="#120e3f"/>
    <path id="Path_459" data-name="Path 459" d="M362.754,165.98s-1.864,26.958,57.627,23.035c0,0,5.056-20.769-18.928-29.018S362.754,165.98,362.754,165.98Z" transform="translate(563.535 1169.359)" fill="#120e3f"/>
    <path id="Path_460" data-name="Path 460" d="M358.582,190.991s14.441-6.277,16.309-30.144C374.891,160.847,360.262,165.115,358.582,190.991Z" transform="translate(559.016 1173.072)" fill="#120e3f"/>
    <path id="Path_461" data-name="Path 461" d="M364.7,185.543s-.732-3.98-6.236-3.869" transform="translate(558.889 1195.662)" fill="none" stroke="#1e0a05" stroke-linecap="round" stroke-linejoin="round" stroke-width="0.489"/>
    <path id="Path_462" data-name="Path 462" d="M388.265,185.543s.732-3.98,6.235-3.869" transform="translate(591.215 1195.662)" fill="none" stroke="#1e0a05" stroke-linecap="round" stroke-linejoin="round" stroke-width="0.489"/>
    <path id="Path_463" data-name="Path 463" d="M370.977,188.493s5.883,3.479,14.329,0" transform="translate(572.461 1203.062)" fill="none" stroke="#1e0a05" stroke-linecap="round" stroke-linejoin="round" stroke-width="0.489"/>
    <path id="Path_464" data-name="Path 464" d="M384.463,174.572s-6.34-1.234-6.634,2.179c0,0-.15,2.314,5.391,3.248s7.747.74,8.4-1.391S387.454,174.847,384.463,174.572Z" transform="translate(579.895 1187.725)" fill="#1e0a05"/>
    <path id="Path_465" data-name="Path 465" d="M371.013,174.605s-6.452.288-5.937,3.673c0,0,.4,2.285,6,1.9s7.705-1.1,7.843-3.321S373.988,174.174,371.013,174.605Z" transform="translate(566.028 1187.837)" fill="#1e0a05"/>
    <ellipse id="Ellipse_25" data-name="Ellipse 25" cx="2.491" cy="2.491" rx="2.491" ry="2.491" transform="translate(936.869 1373.392)" fill="#1e0a05"/>
    <ellipse id="Ellipse_26" data-name="Ellipse 26" cx="2.491" cy="2.491" rx="2.491" ry="2.491" transform="translate(961.313 1373.392)" fill="#1e0a05"/>
    <path id="Path_466" data-name="Path 466" d="M373.8,183.472v5.306h2.689" transform="translate(575.523 1197.615)" fill="none" stroke="#1e0a05" stroke-linecap="round" stroke-linejoin="round" stroke-width="0.489"/>
    <line id="Line_16" data-name="Line 16" x2="203.62" transform="translate(851.057 1692.903)" fill="none" stroke="#1e0a05" stroke-linecap="round" stroke-linejoin="round" stroke-width="0.489"/>
  </g>
</svg>
